<?xml version="1.0" standalone="no"?>
<!DOCTYPE svg PUBLIC "-//W3C//DTD SVG 20010904//EN"
 "http://www.w3.org/TR/2001/REC-SVG-20010904/DTD/svg10.dtd">
<svg version="1.0" xmlns="http://www.w3.org/2000/svg"
 width="820.000000pt" height="515.000000pt" viewBox="0 0 820.000000 515.000000"
 preserveAspectRatio="xMidYMid meet">
<metadata>
Created by potrace 1.16, written by Peter Selinger 2001-2019
</metadata>
<g transform="translate(0.000000,500.000000) scale(0.1,-0.1)"
fill="#ffee00" stroke="none">
<path d="M4146 4575 c-13 -30 -38 -74 -54 -97 -15 -24 -55 -91 -88 -150 -32
-59 -61 -108 -64 -108 -3 0 -20 28 -37 63 -17 34 -54 93 -83 132 -29 38 -67
96 -85 128 l-32 58 -26 -43 c-14 -24 -65 -81 -112 -128 -48 -47 -104 -103
-124 -124 -20 -22 -76 -82 -126 -133 l-90 -94 -100 133 -100 133 -6 -55 c-4
-30 -7 -94 -8 -142 -1 -48 -6 -133 -12 -188 -10 -84 -15 -100 -27 -95 -35 13
-255 75 -268 75 -7 0 -59 16 -115 35 -103 35 -249 68 -249 56 0 -13 107 -136
132 -153 14 -9 48 -46 77 -82 59 -76 61 -74 -71 -56 -67 9 -141 15 -493 40
-71 5 -163 16 -202 23 -40 8 -73 13 -73 11 0 -2 23 -25 52 -51 55 -51 231
-253 226 -259 -2 -2 -62 15 -133 37 -72 22 -218 65 -325 95 -107 30 -203 57
-212 60 -10 3 -21 -3 -28 -16 -9 -17 -5 -26 24 -58 19 -20 49 -56 66 -80 17
-23 78 -102 136 -175 58 -72 102 -132 97 -134 -4 -1 -179 -7 -388 -13 -438
-12 -455 -14 -455 -44 0 -24 45 -44 205 -91 44 -13 105 -34 136 -47 l56 -23
-295 -2 c-293 -2 -311 -4 -312 -35 0 -10 119 -74 181 -97 30 -12 115 -59 188
-106 74 -46 139 -86 145 -88 6 -2 9 -6 6 -9 -11 -11 -269 -87 -330 -98 -64
-11 -205 -64 -215 -80 -3 -5 -3 -15 0 -23 5 -12 55 -14 331 -12 l326 2 -144
-45 c-78 -25 -219 -68 -313 -97 -159 -48 -170 -53 -173 -77 -3 -26 -3 -26 95
-32 54 -3 204 -10 333 -16 326 -13 325 -12 144 -72 -82 -26 -185 -57 -230 -68
-45 -10 -155 -42 -245 -69 -90 -27 -197 -59 -237 -71 -67 -19 -72 -23 -66 -43
3 -12 7 -23 8 -24 1 -1 125 -7 276 -13 151 -6 343 -17 425 -23 146 -12 149
-13 120 -28 -16 -9 -55 -24 -85 -34 -30 -10 -93 -37 -140 -60 -47 -23 -147
-68 -222 -100 -124 -52 -138 -60 -138 -82 0 -25 0 -25 72 -18 40 4 212 27 382
51 169 25 313 43 318 42 12 -4 -249 -220 -338 -280 -62 -40 -164 -140 -164
-159 0 -3 28 0 62 7 35 8 99 16 143 19 109 8 370 32 539 51 76 8 140 13 142
11 6 -6 -53 -50 -95 -72 -19 -10 -58 -39 -85 -65 -28 -26 -78 -67 -112 -92
-53 -39 -60 -47 -53 -67 6 -15 15 -21 26 -18 10 3 97 24 193 46 96 23 216 53
267 67 87 23 323 68 329 61 2 -1 -31 -61 -73 -132 -42 -72 -92 -159 -111 -195
-19 -36 -43 -78 -54 -93 -19 -26 -19 -30 -5 -45 15 -14 19 -14 52 4 20 10 62
40 93 67 56 46 78 62 205 141 34 21 102 68 150 103 48 36 90 63 93 60 3 -2
-11 -53 -30 -112 -20 -59 -36 -116 -36 -125 0 -10 -11 -62 -25 -115 -14 -54
-23 -100 -21 -102 7 -7 140 65 265 145 58 36 169 98 246 138 77 39 173 90 213
112 41 23 76 42 78 42 2 0 3 -35 2 -77 -1 -43 2 -135 7 -206 l8 -128 49 55
c26 30 72 72 100 93 29 21 100 80 158 131 57 50 107 92 110 92 3 0 11 -80 18
-177 17 -263 30 -353 53 -353 11 0 27 18 44 52 14 29 63 123 108 208 77 144
85 155 110 153 15 -1 123 -41 240 -88 325 -132 367 -147 367 -131 0 24 -40
249 -50 281 -10 34 -32 176 -28 181 2 1 50 -15 108 -37 58 -22 132 -47 165
-55 53 -14 286 -100 418 -155 27 -11 50 -19 52 -17 2 2 -16 46 -39 99 l-42 95
55 -30 c30 -16 89 -54 130 -84 84 -60 157 -99 167 -89 3 3 11 122 16 264 6
142 12 260 13 262 4 3 152 -24 325 -60 105 -22 301 -51 306 -46 2 2 -15 17
-39 34 -50 37 -271 252 -264 259 4 5 177 -23 482 -76 157 -28 235 -36 235 -26
0 2 -9 24 -19 49 -33 76 -102 290 -96 296 6 5 111 -9 408 -55 55 -9 101 -13
103 -11 3 2 -20 40 -49 83 -62 90 -210 344 -205 350 2 2 123 -2 269 -10 145
-7 265 -12 265 -12 1 1 4 10 8 22 6 18 -7 27 -110 78 -64 31 -141 71 -173 89
-31 18 -90 47 -131 63 l-75 29 255 8 c285 8 324 13 328 43 2 16 -10 25 -69 49
-87 36 -143 64 -267 135 l-94 53 134 43 c73 24 170 50 215 59 78 15 375 100
438 126 l30 12 -55 15 c-32 8 -119 16 -205 18 -82 2 -229 6 -325 8 -96 2 -188
5 -205 6 -25 0 -15 9 70 53 55 29 117 65 138 79 21 15 72 38 115 53 42 14 115
46 162 69 l85 44 -54 16 c-33 10 -91 16 -146 16 -95 0 -446 16 -600 28 l-90 7
129 69 c71 39 149 87 174 109 25 21 69 52 99 69 37 21 52 35 49 45 -3 8 -6 17
-6 19 0 14 -296 -37 -478 -82 -57 -14 -107 -24 -112 -22 -6 2 34 32 88 68 53
35 135 91 182 123 l85 59 -70 -7 c-83 -8 -563 -62 -620 -70 -36 -5 -25 4 118
102 87 59 198 133 246 163 49 30 103 66 121 80 28 22 30 27 17 44 -13 18 -20
16 -173 -37 -236 -83 -734 -240 -740 -234 -3 2 67 74 156 158 140 134 240 252
225 267 -2 3 -26 -5 -53 -16 -172 -74 -593 -206 -604 -189 -3 6 -12 39 -17 73
-6 34 -18 78 -26 98 -8 19 -15 58 -15 86 0 28 -7 65 -16 82 -12 22 -15 49 -12
95 2 34 1 63 -2 63 -10 0 -439 -237 -519 -287 l-44 -27 13 24 c7 13 48 78 91
145 44 67 79 126 79 132 0 6 -6 16 -14 22 -16 13 -97 -43 -226 -159 -90 -80
-228 -190 -239 -190 -12 0 -181 175 -229 235 -55 71 -151 174 -173 185 -15 8
-21 2 -43 -45z m157 -145 c33 -41 108 -125 167 -187 l107 -112 49 34 c60 41
168 129 265 215 40 36 69 58 64 50 -4 -8 -44 -70 -87 -137 -68 -105 -78 -125
-68 -142 11 -21 11 -21 69 8 32 16 87 50 123 74 36 25 105 65 154 90 49 24
125 65 169 90 l80 46 7 -39 c4 -22 12 -48 17 -59 6 -11 11 -40 11 -64 0 -25 7
-64 15 -88 9 -24 22 -73 30 -110 16 -77 41 -132 58 -127 85 24 395 128 527
176 8 3 -74 -82 -183 -189 -182 -179 -196 -195 -183 -212 14 -18 29 -14 318
82 167 55 328 107 358 115 30 8 75 22 99 30 24 9 45 15 47 13 2 -1 -88 -64
-199 -139 -111 -75 -220 -155 -242 -178 l-40 -42 30 6 c34 7 619 76 644 76 8
0 -23 -25 -69 -56 -96 -64 -273 -195 -268 -199 9 -7 179 19 283 45 138 33 336
72 342 67 11 -12 -80 -72 -229 -152 -92 -50 -168 -94 -168 -100 0 -31 21 -35
256 -50 131 -8 316 -17 409 -19 94 -2 172 -5 175 -6 11 -2 -57 -34 -123 -56
-39 -13 -98 -42 -131 -63 -71 -46 -225 -124 -278 -141 -30 -9 -38 -17 -38 -35
0 -31 18 -33 415 -41 l330 -7 -60 -19 c-33 -10 -100 -27 -150 -39 -49 -12
-121 -29 -160 -39 -85 -22 -364 -108 -383 -119 -9 -5 8 -15 50 -30 67 -24 199
-92 262 -134 20 -14 60 -34 89 -44 l52 -17 -50 -7 c-27 -4 -151 -8 -275 -9
-124 -1 -245 -5 -270 -8 l-45 -7 75 -42 c41 -23 110 -55 153 -72 42 -17 96
-42 118 -57 23 -14 73 -41 113 -59 l71 -33 -40 -1 c-22 -1 -136 4 -252 11
-117 6 -216 9 -219 5 -3 -3 8 -23 24 -44 17 -21 62 -92 100 -158 38 -66 83
-142 100 -169 18 -27 31 -51 29 -52 -1 -2 -83 10 -181 26 -192 31 -346 47
-346 36 0 -4 14 -24 31 -45 21 -24 48 -84 80 -174 l48 -138 -27 5 c-15 3 -160
28 -322 56 -162 28 -321 58 -353 67 -32 9 -60 14 -63 11 -9 -10 86 -128 176
-217 50 -50 89 -91 85 -91 -4 0 -109 21 -234 46 -124 26 -238 49 -252 51 -24
4 -27 1 -32 -34 -3 -21 -9 -138 -13 -260 -4 -123 -10 -223 -14 -223 -5 0 -42
24 -84 54 -41 30 -104 71 -138 91 -35 20 -77 50 -93 66 -22 20 -37 27 -53 23
-27 -8 -24 -30 23 -131 19 -40 30 -73 25 -73 -5 0 -76 27 -159 59 -83 32 -174
64 -203 71 -29 7 -117 37 -195 66 -79 30 -147 54 -152 54 -8 0 -3 -35 34 -220
22 -111 44 -232 44 -247 1 -7 -54 11 -131 44 -73 30 -205 82 -292 115 l-160
60 -17 -24 c-10 -12 -46 -79 -80 -148 -34 -69 -72 -140 -84 -158 -20 -29 -23
-31 -30 -15 -7 18 -34 373 -35 451 l0 43 -29 -20 c-15 -11 -84 -69 -152 -128
-68 -60 -149 -127 -180 -150 l-57 -42 -7 37 c-5 20 -9 87 -10 147 -1 107 -13
155 -37 155 -6 0 -36 -15 -67 -34 -31 -19 -123 -69 -206 -111 -162 -83 -231
-122 -369 -209 -49 -31 -92 -56 -96 -56 -11 0 27 167 56 250 27 74 66 240 57
240 -3 0 -64 -44 -137 -97 -141 -105 -214 -155 -287 -196 -25 -14 -68 -46 -96
-71 -28 -25 -54 -46 -57 -46 -9 0 15 46 99 185 39 66 88 150 109 187 36 66 36
68 15 68 -44 0 -316 -52 -394 -75 -44 -13 -98 -27 -120 -30 -22 -4 -84 -18
-138 -32 -54 -14 -100 -23 -103 -21 -7 8 93 89 171 140 39 25 95 71 125 103
l55 57 -75 -6 c-41 -4 -131 -13 -200 -21 -363 -41 -625 -61 -616 -46 4 5 30
23 59 40 28 17 113 81 187 143 75 62 171 141 214 176 43 35 76 65 74 67 -7 6
-256 -25 -477 -59 -129 -21 -242 -36 -252 -34 -19 3 123 71 281 134 115 47
250 112 250 121 -1 28 -22 34 -136 39 -65 3 -162 9 -214 14 -52 5 -179 12
-283 16 -103 4 -186 9 -184 11 7 6 271 85 362 108 50 12 178 50 285 83 107 34
214 66 238 72 34 9 42 15 42 33 0 22 -5 23 -187 40 -104 10 -251 18 -328 18
-77 0 -160 4 -185 7 l-45 7 80 24 c44 12 154 47 245 76 91 29 209 65 263 80
88 25 97 30 97 52 l0 23 -352 -5 c-193 -3 -349 -3 -347 -1 3 3 46 14 96 25 50
11 178 48 284 82 l194 62 -65 17 c-82 21 -132 42 -195 84 -128 85 -188 119
-251 144 l-69 27 130 7 c72 3 214 4 316 1 186 -6 187 -6 194 16 4 13 5 24 3
25 -11 9 -304 118 -358 134 l-65 19 85 6 c47 4 193 9 325 12 132 3 280 8 328
12 l88 6 -39 41 c-38 40 -223 267 -273 336 -37 51 -42 60 -27 55 7 -2 114 -34
238 -69 124 -36 288 -85 365 -110 77 -25 141 -43 143 -41 2 2 -38 52 -90 112
-51 59 -115 134 -142 166 l-49 59 64 -6 c35 -3 132 -10 214 -16 83 -6 218 -17
300 -25 194 -19 255 -22 255 -12 0 19 -130 181 -193 240 -29 27 -45 47 -37 44
8 -2 65 -20 125 -40 103 -33 385 -114 431 -124 23 -5 24 5 43 312 l6 99 68
-91 c37 -50 73 -96 81 -102 10 -8 39 16 129 108 65 66 117 124 117 129 0 6 22
28 48 49 27 21 81 73 120 115 l71 77 43 -61 c24 -33 53 -72 64 -87 12 -14 46
-75 76 -135 l54 -108 88 157 c49 87 106 186 129 222 l40 64 24 -23 c14 -13 52
-57 86 -98z"/>
<path d="M5857 3452 c-31 -48 -82 -148 -142 -283 -26 -57 -91 -196 -145 -309
-111 -233 -150 -332 -133 -337 8 -3 7 -18 -4 -50 -18 -52 -19 -51 67 -84 30
-12 88 -24 128 -27 l73 -5 41 39 c22 22 59 78 83 125 61 119 157 269 323 502
83 116 142 208 142 222 0 12 -8 33 -18 46 -10 13 -24 38 -31 56 -12 30 -76 73
-108 73 -6 0 -53 16 -103 35 -120 46 -140 46 -173 -3z m383 -203 c0 -12 -65
-112 -144 -223 -161 -227 -249 -363 -307 -477 -21 -43 -53 -94 -71 -115 -31
-36 -33 -36 -88 -31 -110 12 -156 33 -146 70 6 25 6 25 53 11 25 -8 67 -14 93
-14 40 0 50 5 82 38 20 20 53 71 73 112 21 41 62 116 93 165 93 149 334 485
349 485 7 0 13 -10 13 -21z"/>
<path d="M4767 3426 c-13 -14 -44 -88 -72 -168 -70 -206 -116 -328 -110 -293
2 17 9 71 15 120 22 191 22 174 -5 187 -18 8 -25 19 -25 40 0 42 -35 52 -128
39 -40 -6 -94 -11 -120 -11 -61 -1 -130 -31 -136 -62 -3 -13 -10 -84 -16 -158
-17 -211 -60 -510 -132 -910 -44 -249 -55 -364 -36 -387 23 -28 59 -35 128
-23 36 6 115 14 175 18 145 11 155 18 196 133 30 83 49 118 36 66 -4 -12 -9
-64 -12 -115 l-6 -92 33 -20 c28 -18 43 -20 103 -15 39 4 120 10 182 15 175
12 157 -10 273 340 114 345 210 602 321 862 83 194 88 217 48 239 -12 6 -18
17 -15 25 9 24 -4 43 -37 53 -46 15 -298 0 -326 -19 -17 -12 -42 -72 -101
-250 -43 -129 -79 -232 -79 -228 -1 3 19 117 44 252 25 136 45 258 45 271 0
13 -9 30 -19 37 -11 8 -21 27 -23 43 l-3 30 -88 3 c-82 3 -89 1 -110 -22z
m693 -239 c0 -8 -35 -96 -79 -198 -107 -250 -195 -489 -311 -838 -85 -256
-101 -296 -121 -304 -13 -4 -89 -13 -168 -18 -79 -5 -147 -12 -152 -15 -4 -2
-20 -2 -34 2 -19 5 -25 13 -25 34 0 32 5 33 227 50 67 5 135 15 150 22 24 12
35 39 108 263 130 395 309 872 375 995 12 23 30 27 30 7z m-855 -783 c-10 -66
-163 -495 -185 -518 -16 -16 -42 -21 -147 -30 -70 -5 -153 -10 -183 -10 -53
-1 -55 0 -52 24 2 14 6 27 8 29 9 9 179 30 247 30 37 1 83 7 101 15 37 15 24
-14 152 344 32 89 60 162 62 162 2 0 1 -21 -3 -46z"/>
<path d="M3590 3259 c-135 -38 -240 -115 -342 -253 -106 -142 -183 -296 -241
-482 -48 -152 -61 -245 -61 -439 0 -167 2 -186 27 -268 35 -115 60 -162 111
-215 83 -88 193 -121 313 -97 208 44 372 200 525 504 115 228 154 404 145 671
-5 188 -16 229 -92 370 -80 148 -164 212 -285 217 -36 1 -81 -2 -100 -8z m67
-529 c26 -16 63 -65 63 -83 0 -3 -17 4 -37 14 -46 23 -56 23 -100 2 -94 -44
-214 -225 -268 -405 l-25 -83 6 60 c23 214 206 511 319 515 6 0 24 -9 42 -20z
m21 -115 c59 -42 70 -264 18 -400 -61 -160 -182 -262 -288 -241 -64 13 -73 28
-72 114 3 134 52 277 142 409 79 117 145 156 200 118z m333 -211 c-42 -241
-193 -546 -347 -700 -134 -134 -306 -193 -437 -148 -58 19 -131 84 -159 138
l-20 41 38 -37 c185 -176 493 -78 688 220 111 168 211 401 232 537 4 28 10 42
12 32 2 -10 -1 -47 -7 -83z"/>
<path d="M2617 3035 c-99 -17 -197 -47 -318 -97 l-97 -40 -6 -41 c-10 -76 -16
-170 -26 -402 -6 -126 -22 -400 -36 -608 -14 -208 -24 -406 -22 -440 3 -57 5
-62 31 -71 29 -11 37 -9 167 44 101 41 124 55 144 89 20 35 21 39 24 304 l2
128 136 141 c212 220 294 331 354 483 34 86 54 203 46 263 -8 58 -66 179 -103
214 -52 48 -143 59 -296 33z m344 -386 c-35 -178 -146 -346 -384 -581 -71 -70
-133 -140 -138 -155 -8 -26 -9 -26 -4 6 3 18 5 44 5 58 0 18 39 65 145 174
222 230 328 387 366 539 17 68 25 37 10 -41z m-542 -1151 c-11 -27 -53 -58
-80 -58 -6 0 -47 -16 -91 -36 -84 -38 -103 -36 -96 7 3 26 72 65 162 93 63 20
92 40 103 68 7 21 8 20 11 -11 2 -18 -2 -47 -9 -63z"/>
<path d="M5325 2346 c-67 -31 -110 -68 -142 -124 -23 -39 -28 -61 -31 -138 -5
-110 7 -152 53 -193 157 -138 474 34 452 245 -3 29 -13 64 -22 77 -9 14 -26
45 -38 69 -44 86 -164 115 -272 64z m290 -243 c-17 -90 -85 -167 -182 -203
-61 -23 -82 -24 -137 -9 -43 12 -96 58 -96 83 0 13 6 12 43 -4 93 -43 207 -12
299 81 32 31 58 65 58 73 0 9 5 16 11 16 8 0 9 -12 4 -37z"/>
</g>
</svg>
